<?xml version="1.0" encoding="utf-8"?>
<!-- Generator: Adobe Illustrator 16.0.0, SVG Export Plug-In . SVG Version: 6.00 Build 0)  -->
<!DOCTYPE svg PUBLIC "-//W3C//DTD SVG 1.1//EN" "http://www.w3.org/Graphics/SVG/1.1/DTD/svg11.dtd">
<svg version="1.1" id="Layer_1" xmlns="http://www.w3.org/2000/svg" xmlns:xlink="http://www.w3.org/1999/xlink" x="0px" y="0px"
	 width="578.123px" height="595.28px" viewBox="0 0 578.123 595.28" enable-background="new 0 0 578.123 595.28"
	 xml:space="preserve">
<g>
	<g>
		<g>
			<path fill="#427ABE" d="M354.336,447.542c-59.813,0-116.001-23.293-158.222-65.549c-42.256-42.221-65.547-98.443-65.547-158.256
				c0-59.777,23.291-116.002,65.564-158.223C238.335,23.259,294.523,0.003,354.23,0.003c59.848,0,116.072,23.326,158.311,65.582
				c42.237,42.15,65.564,98.34,65.582,158.117c0.018,59.813-23.273,116.035-65.582,158.291
				C470.338,424.249,414.131,447.542,354.336,447.542z M354.23,94.542c-34.479,0-66.884,13.439-91.267,37.787
				c-24.418,24.418-37.857,56.893-37.857,91.408c0,34.551,13.439,66.99,37.857,91.406c48.8,48.871,133.98,48.871,182.692,0
				c24.487-24.416,37.928-56.893,37.928-91.441c-0.018-34.48-13.458-66.885-37.84-91.232
				C421.291,108.017,388.799,94.542,354.23,94.542z"/>
		</g>
		<g>
			<polygon fill="#427ABE" points="66.831,595.278 0,528.429 205.122,323.308 271.971,390.12 			"/>
		</g>
	</g>
</g>
</svg>
