<?xml version="1.0" encoding="UTF-8" standalone="no"?>
<svg
   xmlns:dc="http://purl.org/dc/elements/1.1/"
   xmlns:cc="http://creativecommons.org/ns#"
   xmlns:rdf="http://www.w3.org/1999/02/22-rdf-syntax-ns#"
   xmlns:svg="http://www.w3.org/2000/svg"
   xmlns="http://www.w3.org/2000/svg"
   xml:space="preserve"
   enable-background="new 0 0 500 500"
   viewBox="0 0 500 500"
   height="500px"
   width="500px"
   y="0px"
   x="0px"
   id="Calque_1"
   version="1.1"><metadata
     id="metadata4324"><rdf:RDF><cc:Work
         rdf:about=""><dc:format>image/svg+xml</dc:format><dc:type
           rdf:resource="http://purl.org/dc/dcmitype/StillImage" /><dc:title></dc:title></cc:Work></rdf:RDF></metadata><defs
     id="defs4322" /><path
     style="fill:#db2427;fill-opacity:1"
     id="path4318"
     d="M299.414,7.738c-46.204-24.493-69.066,23.046-69.066,23.046  S81.62,306.617,80.226,309.231c-1.341,2.621-0.922,5.242-0.922,5.242S90.826,489.744,91.451,494.21  c0.595,4.474,3.094,4.771,3.094,4.771c1.639,1.006,6.401-0.899,6.401-0.899s146.281-82.57,154.138-86.267  c7.896-3.628,8.604-8.032,8.604-8.032s127.351-236.191,150.388-278.867c23.015-42.691-20.805-66.864-20.805-66.864  S345.611,32.277,299.414,7.738z M189.149,371.927c1.372,5.48,7.804,4.703,7.804,4.703c15.241-5.953,28.456-1.791,28.456-1.791  c28.867,12.619,15.866,22.336,15.866,22.336s-62.901,35.186-80.171,46.434c-17.291,11.309-22.923,6.965-22.923,6.965l-13.45-7.262  l-13.459-7.324c0,0-6.668-2.316-6.668-22.924c0-20.659-4.938-92.576-4.938-92.576s1.006-16.194,27.328,1.066  c0,0,10.745,8.817,14.106,24.828c0,0,2.857,5.838,8.162,3.986c5.319-1.837,15.508-9.519,27.114-2.439  C188.616,353.767,187.839,366.509,189.149,371.927z"
     clip-rule="evenodd"
     fill-rule="evenodd" /></svg>