<?xml version="1.0" encoding="utf-8"?>
<!-- Generator: Adobe Illustrator 16.0.0, SVG Export Plug-In . SVG Version: 6.00 Build 0)  -->
<!DOCTYPE svg PUBLIC "-//W3C//DTD SVG 1.1//EN" "http://www.w3.org/Graphics/SVG/1.1/DTD/svg11.dtd">
<svg version="1.1" id="Calque_1" xmlns="http://www.w3.org/2000/svg" xmlns:xlink="http://www.w3.org/1999/xlink" x="0px" y="0px"
	 width="500px" height="500px" viewBox="0 0 500 500" enable-background="new 0 0 500 500" xml:space="preserve">
<path d="M312.307,0C208.812,0,124.614,84.199,124.614,187.693c0,39.062,12,75.371,32.5,105.445L0,450.251l49.497,49.497
	l157.068-157.068c30.133,20.623,66.551,32.705,105.742,32.705C415.801,375.385,500,291.187,500,187.693
	C500,84.199,415.801,0,312.307,0z M312.307,305.385c-64.896,0-117.693-52.796-117.693-117.692S247.411,70,312.307,70
	C377.203,70,430,122.797,430,187.693S377.203,305.385,312.307,305.385z"/>
</svg>
